<svg width="24" height="24" viewBox="0 0 24 24" fill="none" xmlns="http://www.w3.org/2000/svg">
<path d="M4.8 5.05263C4.8 2.26105 6.948 0 9.6 0C12.252 0 14.4 2.26105 14.4 5.05263C14.4 7.84421 12.252 10.1053 9.6 10.1053C6.948 10.1053 4.8 7.84421 4.8 5.05263ZM12 17.9368C12 16.7242 12.6 15.5874 13.44 14.8295V14.5263C13.44 14.0337 13.524 13.5663 13.656 13.1116C12.42 12.8084 11.052 12.6316 9.6 12.6316C4.296 12.6316 0 14.8926 0 17.6842V20.2105H12V17.9368ZM24 18.0632V22.4842C24 23.2421 23.28 24 22.44 24H15.84C15.12 24 14.4 23.2421 14.4 22.3579V17.9368C14.4 17.1789 15.12 16.4211 15.84 16.4211V14.5263C15.84 12.7579 17.52 11.3684 19.2 11.3684C20.88 11.3684 22.56 12.7579 22.56 14.5263V16.4211C23.28 16.4211 24 17.1789 24 18.0632ZM21 14.5263C21 13.5158 20.16 12.8842 19.2 12.8842C18.24 12.8842 17.4 13.5158 17.4 14.5263V16.4211H21V14.5263Z" fill="white"/>
</svg>
