<svg width="12" height="14" viewBox="0 0 12 14" fill="none" xmlns="http://www.w3.org/2000/svg">
<path d="M2.25 13.75C1.8375 13.75 1.48425 13.603 1.19025 13.309C0.896252 13.015 0.749502 12.662 0.750002 12.25V2.5C0.537503 2.5 0.359253 2.428 0.215253 2.284C0.0712527 2.14 -0.000497405 1.962 2.59515e-06 1.75C2.59515e-06 1.5375 0.0720027 1.35925 0.216003 1.21525C0.360003 1.07125 0.538002 0.999502 0.750002 1H3.75C3.75 0.787503 3.822 0.609252 3.966 0.465253C4.11 0.321253 4.288 0.249503 4.5 0.250003H7.5C7.7125 0.250003 7.89075 0.322003 8.03475 0.466003C8.17875 0.610003 8.2505 0.788002 8.25 1H11.25C11.4625 1 11.6408 1.072 11.7848 1.216C11.9288 1.36 12.0005 1.538 12 1.75C12 1.9625 11.928 2.14075 11.784 2.28475C11.64 2.42875 11.462 2.5005 11.25 2.5V12.25C11.25 12.6625 11.103 13.0158 10.809 13.3098C10.515 13.6038 10.162 13.7505 9.75 13.75H2.25ZM2.25 2.5V12.25H9.75V2.5H2.25ZM3.75 10C3.75 10.2125 3.822 10.3908 3.966 10.5348C4.11 10.6788 4.288 10.7505 4.5 10.75C4.7125 10.75 4.89075 10.678 5.03475 10.534C5.17875 10.39 5.2505 10.212 5.25 10V4.75C5.25 4.5375 5.178 4.35925 5.034 4.21525C4.89 4.07125 4.712 3.9995 4.5 4C4.2875 4 4.10925 4.072 3.96525 4.216C3.82125 4.36 3.7495 4.538 3.75 4.75V10ZM6.75 10C6.75 10.2125 6.822 10.3908 6.966 10.5348C7.11 10.6788 7.288 10.7505 7.5 10.75C7.7125 10.75 7.89075 10.678 8.03475 10.534C8.17875 10.39 8.2505 10.212 8.25 10V4.75C8.25 4.5375 8.178 4.35925 8.034 4.21525C7.89 4.07125 7.712 3.9995 7.5 4C7.2875 4 7.10925 4.072 6.96525 4.216C6.82125 4.36 6.7495 4.538 6.75 4.75V10Z" fill="#0F3498"/>
</svg>
