<svg width="14" height="14" viewBox="0 0 14 14" fill="none" xmlns="http://www.w3.org/2000/svg">
<path d="M1.75 12.25H2.8L9.26875 5.78125L8.21875 4.73125L1.75 11.2V12.25ZM12.475 4.69375L9.2875 1.54375L10.3375 0.49375C10.625 0.20625 10.9783 0.0625 11.3973 0.0625C11.8163 0.0625 12.1693 0.20625 12.4563 0.49375L13.5063 1.54375C13.7938 1.83125 13.9438 2.17825 13.9563 2.58475C13.9688 2.99125 13.8313 3.338 13.5438 3.625L12.475 4.69375ZM1 13.75C0.787503 13.75 0.609253 13.678 0.465253 13.534C0.321253 13.39 0.249503 13.212 0.250003 13V10.8812C0.250003 10.7812 0.268753 10.6843 0.306253 10.5903C0.343753 10.4963 0.400003 10.412 0.475003 10.3375L8.2 2.6125L11.3875 5.8L3.6625 13.525C3.5875 13.6 3.50325 13.6562 3.40975 13.6937C3.31625 13.7312 3.21925 13.75 3.11875 13.75H1ZM8.74375 5.25625L8.21875 4.73125L9.26875 5.78125L8.74375 5.25625Z" fill="#0F3498"/>
</svg>
