<svg width="24" height="24" viewBox="0 0 24 24" fill="none" xmlns="http://www.w3.org/2000/svg">
<path d="M3.25 20.75H5L15.7813 9.96875L14.0313 8.21875L3.25 19V20.75ZM21.125 8.15625L15.8125 2.90625L17.5625 1.15625C18.0417 0.677083 18.6304 0.4375 19.3288 0.4375C20.0271 0.4375 20.6154 0.677083 21.0938 1.15625L22.8438 2.90625C23.3229 3.38542 23.5729 3.96375 23.5938 4.64125C23.6146 5.31875 23.3854 5.89667 22.9063 6.375L21.125 8.15625ZM2 23.25C1.64584 23.25 1.34875 23.13 1.10875 22.89C0.868754 22.65 0.749171 22.3533 0.750004 22V18.4688C0.750004 18.3021 0.781254 18.1404 0.843754 17.9838C0.906254 17.8271 1 17.6867 1.125 17.5625L14 4.6875L19.3125 10L6.4375 22.875C6.3125 23 6.17209 23.0937 6.01625 23.1562C5.86042 23.2188 5.69875 23.25 5.53125 23.25H2ZM14.9063 9.09375L14.0313 8.21875L15.7813 9.96875L14.9063 9.09375Z" fill="#245FFF"/>
</svg>
