<svg width="24" height="24" viewBox="0 0 24 24" fill="none" xmlns="http://www.w3.org/2000/svg">
<path d="M9.71123 0C6.89594 0 4.63679 1.93826 4.63679 5.64266C4.63679 8.06174 5.59793 10.5257 7.05737 12.044C7.62659 13.5622 6.60013 14.1272 6.38737 14.2077C3.44144 15.2909 0 17.2554 0 19.2067V19.9364C0 22.5959 5.05204 23.2105 9.73922 23.2105C10.7608 23.2088 11.782 23.1701 12.8009 23.0945C11.5251 21.7446 10.8156 19.9549 10.8189 18.0954C10.8189 16.42 11.3881 14.8849 12.3343 13.652C12.1943 13.3227 12.1383 12.8036 12.3931 12.015C13.8441 10.4949 14.7847 8.05239 14.7847 5.64172C14.7847 1.93826 12.5228 0.000935456 9.7103 0.000935456L9.71123 0ZM18.1095 12.1899C16.5473 12.1899 15.049 12.812 13.9443 13.9194C12.8397 15.0269 12.2191 16.5288 12.2191 18.0949C12.2191 19.6611 12.8397 21.163 13.9443 22.2705C15.049 23.3779 16.5473 24 18.1095 24C19.6718 24 21.17 23.3779 22.2747 22.2705C23.3794 21.163 24 19.6611 24 18.0949C24 16.5288 23.3794 15.0269 22.2747 13.9194C21.17 12.812 19.6718 12.1899 18.1095 12.1899ZM17.293 14.8213H18.926V17.2479H21.3466V18.9429H18.926V21.3695H17.293V18.9429H14.8435V17.2479H17.293V14.8213Z" fill="#D2DEFF"/>
</svg>
